PathFileType	3	(X/Y/Z)	results
DataRate	CameraRate	NumFrames	NumMarkers	Units	OrigDataRate	OrigDataStartFrame	OrigNumFrames
30.0	30.0	4	85	mm	30.0	154	410
Frame#	Time	head			nose			neck			shoulder_r			elbow_r			wrist_r			shoulder_l			elbow_l			wrist_l			hip_r			knee_r			ankle_r			hip_l			knee_l			ankle_l			heel_r			heel_l			mtoe_r			ltoe_r			mtoe_l			ltoe_l			asis_l			asis_r			psi_r			psi_l			mhnd_r			lhnd_r			mhnd_l			lhnd_l			l_lat_knee			r_med_wrist			l_lat_ankle			r_med_ankle			r_lat_knee			xiphoid			l_med_ankle			r_med_knee			l_med_elbow			navel			r_lat_elbow			r_lat_wrist			l_med_wrist			l_lat_elbow			l_med_knee			r_med_elbow			r_lat_ankle			l_lat_wrist			chin			T10			r_eye			l_eye			l_ear			r_ear			spinal_cord_8			spinal_cord_12			spinal_cord_27			spinal_cord_33			up_arm_r_0			up_arm_r_5			up_arm_l_0			up_arm_l_5			front_torso_11			front_torso_7			front_torso_4			front_torso_1			front_torso_10			thigh_r_2			thigh_r_3			thigh_l_1			thigh_l_5			shank_l_0			shank_l_4			shank_r_1			shank_r_2			foot_r_1			foot_r_3			foot_r_5			foot_r_6			foot_r_7			foot_l_1			foot_l_7			foot_l_0			foot_l_4			foot_l_5			foot_l_6			
		X1	Y1	Z1	X2	Y2	Z2	X3	Y3	Z3	X4	Y4	Z4	X5	Y5	Z5	X6	Y6	Z6	X7	Y7	Z7	X8	Y8	Z8	X9	Y9	Z9	X10	Y10	Z10	X11	Y11	Z11	X12	Y12	Z12	X13	Y13	Z13	X14	Y14	Z14	X15	Y15	Z15	X16	Y16	Z16	X17	Y17	Z17	X18	Y18	Z18	X19	Y19	Z19	X20	Y20	Z20	X21	Y21	Z21	X22	Y22	Z22	X23	Y23	Z23	X24	Y24	Z24	X25	Y25	Z25	X26	Y26	Z26	X27	Y27	Z27	X28	Y28	Z28	X29	Y29	Z29	X30	Y30	Z30	X31	Y31	Z31	X32	Y32	Z32	X33	Y33	Z33	X34	Y34	Z34	X35	Y35	Z35	X36	Y36	Z36	X37	Y37	Z37	X38	Y38	Z38	X39	Y39	Z39	X40	Y40	Z40	X41	Y41	Z41	X42	Y42	Z42	X43	Y43	Z43	X44	Y44	Z44	X45	Y45	Z45	X46	Y46	Z46	X47	Y47	Z47	X48	Y48	Z48	X49	Y49	Z49	X50	Y50	Z50	X51	Y51	Z51	X52	Y52	Z52	X53	Y53	Z53	X54	Y54	Z54	X55	Y55	Z55	X56	Y56	Z56	X57	Y57	Z57	X58	Y58	Z58	X59	Y59	Z59	X60	Y60	Z60	X61	Y61	Z61	X62	Y62	Z62	X63	Y63	Z63	X64	Y64	Z64	X65	Y65	Z65	X66	Y66	Z66	X67	Y67	Z67	X68	Y68	Z68	X69	Y69	Z69	X70	Y70	Z70	X71	Y71	Z71	X72	Y72	Z72	X73	Y73	Z73	X74	Y74	Z74	X75	Y75	Z75	X76	Y76	Z76	X77	Y77	Z77	X78	Y78	Z78	X79	Y79	Z79	X80	Y80	Z80	X81	Y81	Z81	X82	Y82	Z82	X83	Y83	Z83	X84	Y84	Z84	X85	Y85	Z85	
154	5.133333333333333	772.5886903127071	1480.2950770953737	-1361.2932004927347	719.2651910629771	1296.8917028429416	-1485.7993552396165	757.973631349823	1158.3024422218637	-1303.3852716092679	926.8394882396251	1109.635920178912	-1342.5558504625308	963.3149611030333	931.4872930589004	-1536.6770025400858	797.5293963565425	1070.9108920190479	-1610.3203579584613	613.1569421894386	1125.328544307848	-1304.9734712562497	490.6029578632488	985.415584339838	-1501.7870064074095	675.5674458489863	1073.1615193816972	-1606.1558437513283	852.2020519163386	715.6562447991171	-1062.375572669282	903.2490637168404	456.9927029309231	-1360.4629816380877	949.9648550549274	97.72395652014593	-1211.2999381694372	654.1133269006541	715.9620053014908	-1053.9775096701069	549.7712396341042	453.31479837357693	-1348.3297094978277	545.9364153084192	96.43300750628853	-1191.578032814976	951.0686339489126	41.52897908254541	-1182.2002315688806	542.0395215985853	33.83469022774543	-1152.52236826868	966.8042175614416	37.73543016296371	-1406.7995506541079	1027.3115592358715	29.51356242491661	-1341.7686965443154	543.7559381148887	43.34104529421158	-1378.9175348617161	468.5435639478358	18.05550199465136	-1321.378990902974	606.8134043259075	727.9510285276393	-1130.118953290903	897.0583092426492	727.949252144479	-1137.6829540936715	803.4947296353868	846.6110509444278	-1044.000582750924	704.5048775652108	842.0477530774539	-1043.976811221178	742.6193303531702	1091.6914184029752	-1654.3060618766096	743.2694193241213	1137.0183147167752	-1625.773762466392	725.9764605810976	1083.4602573625104	-1662.4362491380216	748.7299864024767	1117.486770381863	-1628.081907372429	503.72126996641265	463.6899166159624	-1332.6546863759868	802.9535005549844	1051.827284306822	-1631.1768439219204	495.8772591170972	90.43353276879407	-1168.9802778781648	920.7274568735503	77.31479438074584	-1226.2303453557643	946.3007001722052	454.0889136989506	-1355.7552332163834	761.6233004992846	970.3765475004029	-1315.5219879944257	571.2764979698715	77.04677206024179	-1206.5260424773276	861.3555007005062	451.65409524140114	-1362.7163112007204	502.46080528632086	959.1923104031425	-1478.159080851081	758.6927505807428	772.5891957926955	-1236.9303939835193	986.7449154376616	961.5795080037818	-1550.797979925665	800.0050560346602	1078.1956020709795	-1579.523565570484	655.140798083317	1063.611002363484	-1628.8185880516057	476.3816442124953	1023.978798671771	-1504.7881881859669	598.080660981818	462.36162619755294	-1358.1275119414568	940.6769953970236	911.6505502530404	-1514.3293674714532	998.7300258417961	89.2588120263138	-1198.6540455928157	675.9822228102421	1086.1011967399515	-1578.2398848978041	726.2358376064612	1215.2492624827225	-1468.2193196977244	756.6111677097625	1061.9916072115952	-1149.2833472871005	752.7512949301804	1330.467054115609	-1497.7889764824786	684.0384400893917	1330.5306604807838	-1470.2816027433703	672.4025114686461	1322.646373049363	-1348.1662040892581	843.8122299319184	1319.0873179001776	-1413.902948519896	756.6929688787757	1230.5096113454576	-1285.4213362695837	754.3004380758399	1149.5187928231255	-1191.2757721706148	769.3502637445628	922.840559586245	-1099.4441788795693	756.8100241767811	1048.120050788971	-1156.636650721435	918.7489376578766	1047.876719744538	-1467.4128838775118	983.6661176052521	991.5913330807585	-1441.1370483508285	571.8273468078784	1121.3484172382807	-1351.5526750498502	522.9335323899998	989.8750134645029	-1421.2582298370853	808.5437428522148	813.8376680906614	-1212.7211080216184	763.3646433619093	881.5294301122335	-1305.880743053699	693.842495775622	1007.0220971097361	-1341.2872063872398	684.8678697085531	840.5204033379567	-1233.7056763089495	846.2060223614543	1040.910089949725	-1361.5053191737682	861.6567018134756	574.1404349368562	-1222.4863824213917	962.1398838379998	556.92789063595	-1238.652237610577	628.9590133899812	522.0828960984079	-1263.550692907173	528.7235191376278	677.98614076044	-1126.5731283056045	479.0747061613541	187.0602181501677	-1221.230359319858	593.6957327319118	307.78633243753126	-1303.985155901312	979.6735981876428	315.3907747752776	-1284.2930100690912	889.9454294286493	259.55622965443126	-1294.7356649198114	988.1548147786166	29.220800880243594	-1387.0278321064234	1010.8772681700926	29.7210811419912	-1368.3271046868654	948.187096437806	47.516702177336846	-1325.35785917447	984.0574596194109	52.45825419271872	-1308.8706990151732	1013.4251127800679	37.51642615919192	-1294.602539495648	497.3405045809575	23.72549875625157	-1352.1995831794088	479.38203180004115	47.14408976248163	-1245.2050453753052	482.8604409441607	21.540769011968788	-1343.8788277257422	515.1558616357675	26.352225732456223	-1361.7774628265074	508.50758255360694	38.74471273239066	-1302.4792837907296	538.4468458613725	53.20528362849556	-1273.1495556893578	
155	5.166666666666667	767.385303965332	1441.713974528699	-1373.3001321647585	717.7797087207204	1255.9645198857597	-1495.8497174335241	757.1696328552283	1122.3945021429033	-1310.8229610532205	928.8068946889987	1072.0542554859046	-1352.4270550038673	959.627473665174	893.4565767300396	-1547.114949347254	790.432907767671	1028.6498938068585	-1620.8923382351272	612.3894762712667	1084.0137396803823	-1315.6186001891272	489.30031795839005	942.5827364548443	-1511.0079895949395	673.8682272799917	1035.393269157681	-1611.630834957145	851.9946944272459	689.6670756506352	-1051.3575517146016	905.8227682876181	454.39978367031364	-1368.849672838114	950.8086841615499	97.92632072418606	-1212.6160387098478	653.8501424512257	690.5282910871911	-1044.4467804004537	542.0604474305235	450.0666959909506	-1356.621696718753	545.8333370217423	96.29825394172958	-1192.9633288076177	951.7528111599964	42.07192395253242	-1182.6467254396503	543.3524596926814	34.03870152495944	-1152.956907961177	967.3679770995226	36.485315710664864	-1407.217004282628	1027.8104449568514	28.11119202969515	-1342.1452621532762	539.8998403364577	42.47957709068892	-1379.374485388948	466.0994612041577	17.21619415381952	-1320.0262799299396	607.1257203441074	699.1276181527152	-1121.3975357114248	897.4181417676042	698.5244890170508	-1126.8072714496009	803.3151241447524	821.3589345091507	-1039.2431595161943	704.3222200532794	816.8905276272197	-1039.7464932599842	734.5452364884253	1047.6666407682467	-1664.4425312134863	734.8317697415706	1093.5299015808148	-1636.7744727149284	724.8432265567175	1047.4236923490962	-1667.051365154207	746.4020746737251	1081.477408031925	-1631.961368862268	496.74176706646927	460.94849491532716	-1338.6066381463388	795.8808280155827	1009.2690522795282	-1641.466621772557	496.3748001452921	90.20041872431118	-1169.1045593590645	921.8201477376117	77.20816237164857	-1227.606004716328	948.7900705250377	452.1485152836521	-1363.7022942227168	761.7254494727808	934.1579297170491	-1315.6187104930168	571.0418567459229	76.89878449285214	-1208.115227214821	863.8733767410171	449.3369180002284	-1370.866224597777	501.7699515029832	916.5088716762673	-1487.5301421140637	759.5347332433922	739.57108556848	-1229.3851664730041	982.4137574958706	923.6194075210551	-1562.11145129255	793.2283744993582	1036.5567745021378	-1590.2769023213043	653.9650785030334	1025.7101985911704	-1634.6994956604433	474.5551526943172	980.9623842653579	-1513.8288208390557	590.7938073215639	460.107391780808	-1365.2117154793186	937.8576261517239	873.579907881365	-1523.9550179066316	999.3938315239147	89.76442868882361	-1199.1072961179646	673.621630445162	1047.989226826699	-1583.5561294524327	724.7573624845653	1174.667054505377	-1476.74029301682	755.8961706800687	1032.1554225600628	-1153.087983519793	751.3602345436185	1289.5115880981766	-1507.6529747231248	682.0473425492178	1289.6713092896728	-1481.6950555330684	667.7103913544502	1283.7768440928805	-1359.7547647260355	840.5690145577777	1280.0269545551412	-1421.5699144731407	755.5096507111842	1195.2398327316075	-1295.6895340520343	753.2749819395336	1117.9680808990122	-1198.4645025412335	769.1683360941631	895.1140280711357	-1097.8363124833272	756.1770363205579	1018.0090073083952	-1159.8946525213894	916.8272907122952	1009.8472720119562	-1476.7480706682834	982.8805618612482	953.9739444843011	-1452.5026344307837	570.5645939664158	1079.5152079208922	-1361.7059251726128	522.5238825594441	947.4409683962441	-1430.8666846962544	809.1356864647117	781.9682171904541	-1206.6942851785948	763.8591835514037	845.763201345643	-1302.518507357702	693.8347399916719	969.4488524475748	-1342.9387143906463	685.3860112905815	807.2242832936388	-1228.9696321707024	846.0852468402256	1003.2480374854782	-1364.1333040817822	862.9102417735786	560.8221602767137	-1221.7436569390072	963.5665899100375	545.9664959104098	-1239.1242565014434	623.5679204100998	512.4813034824064	-1266.9889670500966	527.1398689081176	659.6098789380937	-1118.0908731192105	477.2939342077762	185.59921218929182	-1222.8084128966423	588.6247914583174	305.9172826264974	-1310.501815786365	981.303993169716	314.300438789878	-1289.0471769519063	891.8112630308933	258.14851811971664	-1299.8037003390082	988.6365673541524	27.894355247501313	-1387.3899965764192	1011.369668357837	28.295636688839974	-1368.699826260186	948.8820289226986	47.04948167325455	-1325.8432510833657	984.8074172261742	51.73977841271258	-1309.4025718711312	1014.0242814455025	36.59934724138763	-1295.0345573124505	494.1701508923737	22.836186967318678	-1351.5187174757764	478.5631616432378	46.700754460595135	-1244.2542192753465	479.89016886201745	20.642637208608477	-1342.861309609115	511.75451067198094	25.47688631594626	-1361.5106851610565	506.41060905323064	38.127555639453185	-1302.1351795470964	536.9576577740643	52.826340312916784	-1273.5602938583738	
156	5.2	759.5111747865271	1404.8028828117872	-1383.0006047622703	717.3443833257797	1216.7134777140739	-1504.7639539982458	757.0672515468765	1087.405198804307	-1319.099212401116	919.7838731329923	1032.833848514721	-1356.2307597625195	959.8449035435614	860.0094680107273	-1554.4156797113535	790.0179991581941	993.4464656285667	-1629.9175170148937	610.5003630559864	1044.7498722975406	-1329.446397181367	483.81427071473854	895.1865815311409	-1516.294300895487	663.9379534227767	1000.0963965368035	-1613.0075615368764	853.0270399981341	664.9593249305044	-1042.3953091194694	910.4062127682587	452.1057658940876	-1375.7912762509054	951.011264262867	97.48656878771705	-1214.2287011244268	654.8317301477354	666.6570533178561	-1037.3454772817104	534.2394322564252	447.5031687895881	-1363.5905989668008	545.2074764369703	96.61564585943071	-1194.1560837937432	951.4670737448301	41.60455564656459	-1183.933213190513	543.9595556189694	34.74735141343565	-1153.4073273806707	968.73136902343	37.81197848226498	-1408.4202154992572	1028.446867956537	27.421712369942284	-1342.9690806798938	534.84968233961	40.70810994088858	-1379.746824366078	461.79745065830804	18.747093747389624	-1318.1998570742523	608.8564031684705	674.347014250782	-1114.8417520318733	899.1820121033443	672.5846242431551	-1117.535025037721	804.7462039946943	796.9893385285523	-1032.5850524997645	705.7457036487224	792.8837064573357	-1033.9487907175624	735.0421306280869	1012.3776172210656	-1674.64953187232	733.5199005165603	1057.5287430907879	-1645.8727894762376	714.8344954078477	1015.9167399039533	-1667.5408133238145	733.9174511449544	1050.6234690522024	-1631.665597981281	489.77274842513003	458.8761603586556	-1343.127392066096	796.4887435853035	974.7055784485989	-1650.786312156933	495.1680832891535	89.00377905477636	-1172.0045610234322	922.8386360241672	76.41694206388655	-1230.249008806887	953.2442032467552	450.48132072376853	-1369.9611123210134	760.5467490797067	899.1236627909404	-1315.2627857118189	571.662573317408	77.96189077113274	-1208.0684587555174	868.3869996816865	447.454083289491	-1377.7175739850059	498.44462201975233	870.0386768581467	-1493.054610303461	758.9060645007193	708.7415987868715	-1220.0942976119675	982.4111906135136	891.0053966981037	-1567.9774368032408	791.7368303146694	1000.6399354388465	-1599.0478243647417	644.9320197705664	989.6281308542312	-1636.4862794125295	467.42496009594737	932.9029591563815	-1518.984971797456	583.3858924404889	458.4130067841758	-1371.246578164716	937.8476181369033	839.1027257126885	-1532.40617697198	999.0213579360343	89.80497222467926	-1198.5556946492857	662.5957779304617	1012.2247524527579	-1584.7584978975494	725.0589486679627	1135.7930220704295	-1484.38011307298	758.1941101787388	1004.5525779212456	-1157.361122484819	750.728449628415	1250.6995326173776	-1515.846669010656	680.5726860045454	1249.9567377727426	-1492.2726756634415	662.1609401469674	1245.3117331882984	-1370.8265602109186	837.0789410635072	1243.8493448899264	-1426.655158629457	756.0656784428704	1160.880176840775	-1307.3245448493637	755.1971361984434	1088.1936070494578	-1206.6044756753656	771.7511434534562	870.1293717664389	-1096.0761338952693	758.2766539109624	990.1056066495082	-1163.5100167336886	912.6397633893479	973.6461818016	-1482.3843028963765	979.1335156724697	918.5073392195418	-1457.666020535779	566.6972091775134	1037.8048924316101	-1373.3400192340048	520.6749518242899	902.7525445509086	-1437.9739152670672	809.1340678448599	751.8382777526111	-1200.2834075174649	762.4547559084425	811.4164953900216	-1298.1277793328252	692.3557531098487	933.5284239677567	-1342.9626187617098	685.1333798826863	776.7918634762452	-1221.4775106777988	844.370169310065	965.3860809554444	-1368.4286615561025	865.8048452501721	548.3268209807458	-1221.239299682406	966.6614435170568	535.563780112424	-1239.1146402080526	618.4471076631645	503.84331061564467	-1270.3918504344465	526.5584431678442	642.3884704895477	-1110.7749928625692	474.5233635609592	182.7978269403472	-1227.9114948766553	584.4292815714282	305.927875908704	-1313.4732327480779	983.315131596364	313.32830847106317	-1291.4183720587735	894.7532542201287	256.4329005986292	-1305.4681470267774	989.6386806635924	28.542771017913722	-1388.5145911522293	1012.2259491427965	28.240093895521337	-1369.6466007002325	949.848102661756	48.019465011082936	-1327.0921818177897	985.740269034361	51.7215524825493	-1310.3298644763797	1014.4861614402123	35.77380467155284	-1295.8854654660076	489.20943156566864	23.011482239354134	-1350.4755422706726	477.27371256588197	48.64031276593126	-1243.1467487106408	475.0941330855724	21.422661798177824	-1341.424892751193	506.6064775173006	24.91522807188058	-1360.9512744214169	503.27205686827114	38.4265866514627	-1301.618549774505	535.055640231686	52.36486595577055	-1274.0281755985473	
157	5.233333333333333	754.6083452741382	1370.447281587772	-1391.5161076001139	715.8733054098594	1180.5908822347062	-1511.6665139276408	756.9332890114874	1055.762730252276	-1325.1144486701846	917.0548829696003	1003.9380719853532	-1365.1616562431761	959.7099214258793	824.5373978282641	-1556.8550597696062	795.1020603874915	964.0163023426039	-1632.993253223593	607.7926558675085	1005.2163214835954	-1336.6295418984032	479.46190187460104	852.5067149995806	-1519.7734108294705	656.361495882912	967.4220258678943	-1610.9055682079243	855.2807228858102	642.6271483912894	-1035.359567400077	915.7147332658342	450.8670324193591	-1381.8874830305947	951.0005943177567	97.65861933538017	-1216.0419652097407	657.0538036295078	643.2982474217632	-1031.4350243427073	526.3525731285845	445.85517225293125	-1369.1159472426837	543.4062006117736	97.30579475030882	-1195.4124299917767	950.7267183779173	41.74094774931098	-1185.4315942311714	543.3146478594997	35.781090956921375	-1153.9978721558098	970.9049551621869	39.617637208392956	-1409.697472267052	1029.7660139325887	28.738150467052122	-1343.5554884706048	531.4021809775952	40.27125906728759	-1380.2411479721839	459.3803192313536	17.76402542178725	-1317.685414158864	611.4733147738954	649.4363696696036	-1109.3020987779712	901.8147821395255	649.2562062756037	-1110.3598371919506	806.2186613516885	774.5298427184362	-1028.0248487212473	707.2515224697669	769.8473261116363	-1029.8672724339563	740.8941613066866	984.8322969341613	-1677.8250033664585	741.0891319454512	1030.1342518598753	-1649.2463903646867	707.2842863865362	986.8578525699787	-1664.232248664153	724.4302126720756	1021.2880270685325	-1627.1333589298574	482.8360108525588	457.7164284752999	-1346.2802172421411	800.8571434591978	944.9512433289677	-1653.777875906191	493.8584660802311	89.58417593413881	-1172.2182507748537	922.9336541106197	76.63238257272553	-1232.3029813344494	958.3754646345835	449.6586049903088	-1375.1804981954524	760.8865455229405	867.7339677556708	-1314.8033811538794	569.7464197640828	78.68401006928593	-1209.5832061605859	873.5832838619176	446.93853234887683	-1383.7221107804896	495.5210470131475	827.735829509004	-1497.078596510004	760.2839598285477	680.748410788249	-1213.1121738465972	983.3153636873735	854.6692236291234	-1570.5941402439944	797.0891111946688	971.2742044787054	-1602.1547578250943	638.1218914137083	956.8519473226012	-1634.9399303136886	461.94722581229166	889.7537588884323	-1521.8393724956181	575.9329498687435	457.2598284846702	-1376.064027152695	936.6169868700058	804.7289167842789	-1534.9522950596138	998.6898312396439	89.78555705692858	-1199.5080387431958	654.1396155588966	978.679526287667	-1582.3531605879084	723.212898700425	1099.9787850202622	-1489.9649982230073	759.2485807743084	978.5468727678235	-1160.623150710887	749.4669175059004	1214.4903225811386	-1522.3749943695536	678.7380218070962	1213.9264852367178	-1500.5754192167965	657.2645504305375	1210.9341479694804	-1379.5809426637725	833.5427549219669	1209.0669550295258	-1430.9403258118891	755.8280886580553	1129.598108215526	-1315.8768171934917	755.7501075660934	1060.430957161068	-1212.7045182851487	773.5020775469259	846.3498145989519	-1094.8202862457317	759.3280297147862	963.896413538806	-1166.2701344298891	912.623440388152	941.1691848379799	-1489.698252322908	977.1764881820217	885.5039416406803	-1461.2906959840702	562.8275655626746	997.1274509825056	-1379.1302468317792	518.5678142027582	860.9579697582104	-1442.6414438686304	810.5290939307168	724.6127948368957	-1195.1124589810954	763.1092087878887	780.6751274099955	-1294.663514400687	692.4451314875723	901.0130821551107	-1343.25076527993	686.3416327110306	748.5494173556843	-1216.3857907025704	844.2241414251986	932.3035911406917	-1370.74346552601	869.6295377383277	537.6422119806937	-1221.165543849481	970.6433500356117	526.2716084793357	-1239.093051380257	613.5726847250423	495.7713152187934	-1273.2778745146468	527.1083757048663	625.9346900093101	-1103.8752525244697	471.3902807759159	182.4733621694185	-1228.9270935946784	578.6434838086278	305.35071509765135	-1318.1405305693083	986.1888148081675	312.4399129330513	-1294.910379625243	897.4391153718915	256.05824292286684	-1309.8197013689994	991.5524960679733	30.199691480523715	-1389.5915248759984	1013.892855296479	29.755672848206927	-1370.4345790994873	950.9666148959805	49.22068662020771	-1328.5478350427304	986.6378838227466	52.79639998918455	-1311.2937576035708	1015.1946154953373	36.74037888535998	-1296.5963117126705	486.34517688770484	22.178770874559557	-1350.315584791796	475.3816899505041	48.29814831245005	-1243.0013343602313	472.3612001899274	20.46713277614723	-1341.0852571141327	503.58924475172194	24.23796203060118	-1361.0125131086659	500.8000777402751	38.06153305615341	-1301.7235865098417	532.7354909321986	52.56267613525609	-1274.6026207782545	
